<svg width="86" height="110" viewBox="0 0 86 110" fill="none" xmlns="http://www.w3.org/2000/svg">
<path d="M67 25C67 31.3652 64.4714 37.4697 59.9706 41.9706C55.4697 46.4714 49.3652 49 43 49C36.6348 49 30.5303 46.4714 26.0294 41.9706C21.5286 37.4697 19 31.3652 19 25C19 18.6348 21.5286 12.5303 26.0294 8.02944C30.5303 3.52856 36.6348 1 43 1C49.3652 1 55.4697 3.52856 59.9706 8.02944C64.4714 12.5303 67 18.6348 67 25V25ZM43 67C31.8609 67 21.178 71.425 13.3015 79.3015C5.42499 87.178 1 97.8609 1 109H85C85 97.8609 80.575 87.178 72.6985 79.3015C64.822 71.425 54.1391 67 43 67V67Z" fill="black" stroke="black" stroke-width="2" stroke-linecap="round" stroke-linejoin="round"/>
</svg>
